<svg xmlns="http://www.w3.org/2000/svg" width="107.646" height="73.349" viewBox="0 0 107.646 73.349">
  <defs>
    <style>
      .cls-1 {
        fill: #fd8189;
      }

      .cls-2 {
        fill: #ffbac2;
      }

      .cls-3 {
        fill: #560000;
      }

      .cls-4 {
        fill: none;
      }
    </style>
  </defs>
  <g id="Layer_8" data-name="Layer 8" transform="translate(-63.906 -265.974)">
    <g id="Group_32" data-name="Group 32" transform="translate(63.906 265.974)">
      <g id="Group_31" data-name="Group 31" transform="translate(0 0)">
        <g id="Group_29" data-name="Group 29" transform="translate(1.365 0.979)">
          <path id="Path_89" data-name="Path 89" class="cls-1" d="M185.442,321.987c.356,8.853-9.617,16.289-17.515,13.6l-.151-.065a10.155,10.155,0,0,0,.772-4.618,24.335,24.335,0,0,0-.276-2.587l.547-.09c14.445-2.7,7.273-16.761,4.5-18.257l-1.337-.243a7.761,7.761,0,0,0,3.6-3.353l.461.283S184.972,310.514,185.442,321.987Z" transform="translate(-80.543 -276.119)"/>
          <path id="Path_90" data-name="Path 90" class="cls-2" d="M170.946,287.42a11.77,11.77,0,0,1,3.328,15.965,7.761,7.761,0,0,1-3.6,3.353l1.337.243c2.776,1.5,9.948,15.559-4.5,18.257l-.547.09c-1.246-7.856-5.94-10.828-7.5-11.6l-.594-1.018c8.44-4.58,7.251-15.2,1.951-19.517l-.238-.245,4.222-3.988,5.305-2.927Z" transform="translate(-79.234 -273.128)"/>
          <path id="Path_91" data-name="Path 91" class="cls-1" d="M157.114,318.326c1.562.773,6.256,3.745,7.5,11.6a24.335,24.335,0,0,1,.276,2.587,10.155,10.155,0,0,1-.772,4.618c-3.274,7.657-15.905,9.157-21.1,6.616l-.114-.091c1.494-2.016,2.2-4.8,1.732-8.635l.353-.9c3.118,1.3,7.206,2.275,10.483.606,6.194-3.155,4.522-11.222-4.127-15.7l.027-.625a9.182,9.182,0,0,0,5.137-1.088.008.008,0,0,0,.009-.009Z" transform="translate(-76.887 -277.726)"/>
          <path id="Path_92" data-name="Path 92" class="cls-1" d="M152.1,301.775a10.624,10.624,0,0,1-1.134-.758l.519-.046,7.238-6.831.238.245c5.3,4.32,6.489,14.937-1.951,19.518a.008.008,0,0,1-.009.008A9.182,9.182,0,0,1,151.865,315a15.889,15.889,0,0,1-5.626-1.591l.046-.1c10.257,1.488,10.045-7.452,5.75-11.428Z" transform="translate(-77.377 -274.32)"/>
          <path id="Path_93" data-name="Path 93" class="cls-2" d="M139.456,312.21a15.891,15.891,0,0,0,5.626,1.591l-.027.625c8.65,4.476,10.322,12.544,4.127,15.7-3.277,1.669-7.364.69-10.483-.606a27.812,27.812,0,0,1-4.772-2.526s-2.485,10.027-15.693,11.179c-15.579,1.359-17.858-8.639-17.858-8.639h-.027a4.916,4.916,0,0,0-.24-1.308c.49-6.821,2.874-12.2,7.533-14.335v-.009l-.113-.225c-2.439-2.573-2.894-10.721-.125-17.51a16.4,16.4,0,0,1,6.976-8.417c.009-.009.009-.009.018-.009a6.406,6.406,0,0,0,2.158-.953.034.034,0,0,1,.019-.009,13.646,13.646,0,0,1,2.188-.531,17.652,17.652,0,0,1,4.56-.149c5.2.459,9.357,3.172,12.808,6.189l.265.2,2.754,2.345.137.422c.952.943,1.85,1.849,2.7,2.657a25.624,25.624,0,0,0,2.2,1.926,10.623,10.623,0,0,0,1.134.758l-.064.107c4.3,3.976,4.507,12.916-5.75,11.428Z" transform="translate(-70.594 -273.122)"/>
          <path id="Path_94" data-name="Path 94" class="cls-2" d="M152.23,273.322l15.285,13-18.319,13.4-8.8-9.474-.265-.2c-3.451-3.017-7.6-5.73-12.808-6.189l.021-.232s-.6-4.317,3.7-8.08a17.5,17.5,0,0,1,5.29-3.079c9.994-3.878,15.515.669,15.515.669Z" transform="translate(-74.594 -270.903)"/>
          <path id="Path_95" data-name="Path 95" class="cls-1" d="M102.278,344.958a12.053,12.053,0,0,1-2.221-6.556,4.419,4.419,0,0,0,.285-1.8h.027s2.279,10,17.858,8.639c13.208-1.151,15.693-11.179,15.693-11.179a27.809,27.809,0,0,0,4.772,2.526l-.353.9c.473,3.832-.237,6.619-1.732,8.635-3.281,4.458-10.361,5.152-16.892,5.058C113.04,351.082,105.828,349.817,102.278,344.958Z" transform="translate(-70.586 -280.19)"/>
          <path id="Path_96" data-name="Path 96" class="cls-1" d="M129.487,275.08l.223.584c-4.3,3.763-3.7,8.08-3.7,8.08l-.021.232a17.652,17.652,0,0,0-4.56.149,13.646,13.646,0,0,0-2.188.531c4.657-3.213,2.758-11.686-1-12.866l0-.1A22.822,22.822,0,0,1,129.487,275.08Z" transform="translate(-73.261 -271.019)"/>
          <path id="Path_97" data-name="Path 97" class="cls-2" d="M114.226,285.626a16.4,16.4,0,0,0-6.976,8.417l-.071-.028s.289-1.488-2.905-2.445l.15-.5,1.367-1.884-6.733-6.639.363-.369c-.573-4.924,6.757-10.717,16-10.487l0,.1c3.755,1.18,5.653,9.653,1,12.866a.034.034,0,0,0-.019.009,12.343,12.343,0,0,0-2.158.953C114.235,285.616,114.235,285.616,114.226,285.626Z" transform="translate(-70.44 -271.018)"/>
          <path id="Path_98" data-name="Path 98" class="cls-2" d="M77.964,301.947c-2.484-3.8-.078-9.555,2.461-11.44l6.81-4.587s9.856-2.7,10.426-2.532c3.194.957,4.586,12.346,4.586,12.346l.071.028c-2.77,6.789-2.314,14.936.125,17.51l.113.225v.009c-4.66,2.132-7.043,7.514-7.533,14.335-.034.464-.059.937-.074,1.411-.017.59-.008,1.153.029,1.7-1.571,4.284-9.618,7.029-20.692,5.834l-.156.266a15.369,15.369,0,0,1-5.354-4.929c-7.248-11.213-1.6-29.516,8.687-30.039Z" transform="translate(-65.506 -272.738)"/>
          <path id="Path_99" data-name="Path 99" class="cls-1" d="M96.463,339.151a12.053,12.053,0,0,0,2.221,6.556c-5.556,3.54-15.969,3.632-23.069-.455l.156-.266C86.845,346.18,94.892,343.435,96.463,339.151Z" transform="translate(-66.992 -280.938)"/>
        </g>
        <g id="Group_30" data-name="Group 30">
          <path id="Path_100" data-name="Path 100" class="cls-3" d="M120.611,349.889q-.586,0-1.159-.008c-9.1-.13-15.334-2.411-18.527-6.783a13.481,13.481,0,0,1-2.483-7.282c-.039-.59-.049-1.19-.031-1.825.016-.5.042-.987.076-1.468.564-7.821,3.395-13.148,8.193-15.421a1.138,1.138,0,0,1,.136-.073c3.362-1.554,7.534-1.517,12.4.117,9.989,3.34,7.874,10.036,6.737,13.633a9.174,9.174,0,0,0-.577,2.459,1.374,1.374,0,0,1-1.738,2.127c-1.621-1.252-.952-3.368-.305-5.415,1.2-3.792,2.438-7.715-4.989-10.2-4.114-1.381-7.56-1.477-10.247-.285a1.219,1.219,0,0,1-.129.067c-4.945,2.263-6.391,8.418-6.735,13.183-.032.447-.055.9-.071,1.359-.016.541-.007,1.053.027,1.56a10.792,10.792,0,0,0,1.958,5.836c2.659,3.638,8.159,5.542,16.348,5.658,5.293.091,12.683-.309,15.766-4.5,1.377-1.858,1.872-4.431,1.475-7.653a1.375,1.375,0,0,1,2.729-.336c.485,3.945-.184,7.182-1.993,9.621C133.9,349.107,126.769,349.889,120.611,349.889Z" transform="translate(-68.978 -276.539)"/>
          <path id="Path_101" data-name="Path 101" class="cls-3" d="M148.822,346.157a15.5,15.5,0,0,1-6.621-1.275,1.375,1.375,0,0,1,1.209-2.469c2.481,1.215,7.717,1.54,12.533-.25,2.317-.86,5.358-2.543,6.695-5.671a8.85,8.85,0,0,0,.664-4.005,22.869,22.869,0,0,0-.259-2.439c-1.157-7.3-5.463-9.951-6.755-10.59a3.865,3.865,0,0,0-.362-.17,1.374,1.374,0,0,1,.917-2.59,5.352,5.352,0,0,1,.687.309c1.567.775,6.863,4.012,8.226,12.605a25.557,25.557,0,0,1,.291,2.727,11.574,11.574,0,0,1-.883,5.237c-1.36,3.182-4.218,5.659-8.264,7.163A23.738,23.738,0,0,1,148.822,346.157Z" transform="translate(-75.305 -276.648)"/>
          <path id="Path_102" data-name="Path 102" class="cls-3" d="M171.161,337.332a12.037,12.037,0,0,1-3.888-.63,1.374,1.374,0,1,1,.885-2.6c3.246,1.105,7.149.3,10.439-2.161a12.244,12.244,0,0,0,5.259-10.085c-.427-10.422-8.24-13.978-8.572-14.123a1.374,1.374,0,0,1,1.093-2.521c.4.171,9.725,4.337,10.225,16.533a14.985,14.985,0,0,1-6.361,12.4A15.33,15.33,0,0,1,171.161,337.332Z" transform="translate(-78.968 -274.952)"/>
          <path id="Path_103" data-name="Path 103" class="cls-3" d="M165.794,305.719a1.374,1.374,0,0,1-.5-2.654,6.416,6.416,0,0,0,2.927-2.779c1.384-2.294,1.842-6.821.22-10.439-1.4-3.124-4.031-5.066-7.817-5.773a1.371,1.371,0,0,1-1.048-.907,17.977,17.977,0,0,0-8.584-8.975,18.738,18.738,0,0,0-19.321,2.257c-3.653,3.2-3.2,6.784-3.2,6.819a1.374,1.374,0,0,1-2.723.378c-.028-.206-.646-5.1,4.156-9.3a21.573,21.573,0,0,1,22.332-2.6,20.932,20.932,0,0,1,9.634,9.785,12.545,12.545,0,0,1,9.077,7.195c2.066,4.607,1.35,10.124-.371,12.977a9.125,9.125,0,0,1-4.28,3.924A1.383,1.383,0,0,1,165.794,305.719Z" transform="translate(-72.993 -269.756)"/>
          <path id="Path_104" data-name="Path 104" class="cls-3" d="M149.378,316.2q-.407,0-.821-.029a17.046,17.046,0,0,1-6.108-1.716,58.559,58.559,0,0,1-8.347-5.119c-3.145-2.182-6.4-4.441-8.107-4.168a1.374,1.374,0,1,1-.431-2.714c2.8-.448,6.186,1.906,10.1,4.625a55.694,55.694,0,0,0,7.939,4.885,14.383,14.383,0,0,0,5.131,1.465,7.757,7.757,0,0,0,4.323-.885c.027-.016.055-.033.083-.048a9.91,9.91,0,0,0,5.366-7.943,11.051,11.051,0,0,0-3.629-9.3,1.374,1.374,0,1,1,1.737-2.13,13.71,13.71,0,0,1,4.627,11.689,12.57,12.57,0,0,1-6.719,10.062c-.026.016-.053.032-.081.047h0A10.491,10.491,0,0,1,149.378,316.2Z" transform="translate(-72.802 -273.146)"/>
          <path id="Path_105" data-name="Path 105" class="cls-3" d="M153.685,304.34a1.389,1.389,0,0,1-.31-.036,6.42,6.42,0,0,1-1.761-.722,11.91,11.91,0,0,1-1.273-.85,26.387,26.387,0,0,1-2.324-2.033,1.374,1.374,0,0,1,1.9-1.984,24.177,24.177,0,0,0,2.076,1.822,9.05,9.05,0,0,0,.981.658,3.815,3.815,0,0,0,1.018.432,1.374,1.374,0,0,1-.308,2.713Z" transform="translate(-76.211 -273.958)"/>
          <path id="Path_106" data-name="Path 106" class="cls-3" d="M139.9,293.42a1.363,1.363,0,0,1-.9-.339c-2.619-2.289-6.716-5.386-12.024-5.854a1.374,1.374,0,1,1,.241-2.738c6.108.538,10.682,3.981,13.591,6.523a1.373,1.373,0,0,1-.9,2.408Z" transform="translate(-72.994 -271.921)"/>
          <path id="Path_107" data-name="Path 107" class="cls-4" d="M119.414,286.76a13.646,13.646,0,0,1,2.188-.531,17.652,17.652,0,0,1,4.56-.149" transform="translate(-72.068 -272.143)"/>
          <path id="Path_108" data-name="Path 108" class="cls-3" d="M116.626,288.992a1.374,1.374,0,0,1-.679-2.57,13.7,13.7,0,0,1,2.4-1.059,1.374,1.374,0,0,1,.878,2.6,10.878,10.878,0,0,0-1.919.845A1.372,1.372,0,0,1,116.626,288.992Z" transform="translate(-71.456 -272.04)"/>
          <path id="Path_109" data-name="Path 109" class="cls-3" d="M108.224,315.093a1.372,1.372,0,0,1-1-.429c-3.031-3.2-3.218-12.064-.4-18.973a17.718,17.718,0,0,1,7.583-9.1,1.374,1.374,0,0,1,1.331,2.4,15.028,15.028,0,0,0-6.368,7.733c-2.778,6.811-1.93,14.169-.15,16.046a1.375,1.375,0,0,1-1,2.32Z" transform="translate(-69.923 -272.205)"/>
          <path id="Path_110" data-name="Path 110" class="cls-3" d="M107.488,298.5a1.4,1.4,0,0,1-.264-.026,1.375,1.375,0,0,1-1.111-1.407c-.062-.116-.408-.616-1.927-1.071a14.781,14.781,0,0,0-1.886-.408,1.374,1.374,0,1,1,.427-2.715,17.554,17.554,0,0,1,2.244.49c4.267,1.279,3.917,3.748,3.863,4.025A1.375,1.375,0,0,1,107.488,298.5Zm-1.352-1.633h0Zm0,0v0Zm0,0v0Z" transform="translate(-69.381 -273.152)"/>
          <path id="Path_111" data-name="Path 111" class="cls-3" d="M88,306.659h-.043c-4.512-.136-7.669-1.52-9.383-4.112-1.482-2.265-1.5-5.875-.047-9.205,1.429-3.277,5.528-9.067,16.933-11.019a1.374,1.374,0,1,1,.464,2.708c-10.133,1.735-13.67,6.639-14.878,9.409-1.233,2.831-.956,5.4-.177,6.6,1.173,1.772,3.654,2.769,7.172,2.875A1.374,1.374,0,0,1,88,306.659Z" transform="translate(-65.898 -271.6)"/>
          <path id="Path_112" data-name="Path 112" class="cls-3" d="M80.444,326.963a1.334,1.334,0,0,1-.142-.008,1.374,1.374,0,0,1-1.227-1.507c.542-5.278,4.937-10.821,13.537-11.307,5.253-.288,9.267,1.8,10.012,5.215a1.374,1.374,0,1,1-2.685.586c-.432-1.981-3.448-3.265-7.173-3.057-5.032.284-10.372,3.129-10.958,8.843A1.374,1.374,0,0,1,80.444,326.963Z" transform="translate(-66.135 -276.278)"/>
          <path id="Path_113" data-name="Path 113" class="cls-3" d="M86.356,344.5a26.943,26.943,0,0,1-13.148-3.275,16.653,16.653,0,0,1-5.824-5.376c-5.051-7.814-3.955-18.013-.8-24.181,2.483-4.852,6.337-7.759,10.571-7.975A1.39,1.39,0,0,1,78.6,305a1.374,1.374,0,0,1-1.3,1.442c-3.228.164-6.239,2.526-8.264,6.482-2.809,5.488-3.8,14.538.661,21.438a13.94,13.94,0,0,0,4.884,4.484c6.383,3.675,16.3,3.9,21.646.49l.034-.022a1.748,1.748,0,0,1,.2-.116,1.374,1.374,0,0,1,1.3,2.422l-.054.033h0A21.5,21.5,0,0,1,86.356,344.5Z" transform="translate(-63.906 -274.746)"/>
          <path id="Path_114" data-name="Path 114" class="cls-3" d="M99.24,283.316a1.375,1.375,0,0,1-1.363-1.216,8.168,8.168,0,0,1,2.445-6.332c3.337-3.655,9.085-5.84,14.959-5.687a24.062,24.062,0,0,1,11.916,3.584,1.374,1.374,0,1,1-1.422,2.352,21.343,21.343,0,0,0-10.565-3.189c-5.039-.114-10.085,1.755-12.859,4.793a5.519,5.519,0,0,0-1.744,4.161,1.373,1.373,0,0,1-1.206,1.523A1.273,1.273,0,0,1,99.24,283.316Z" transform="translate(-68.895 -269.802)"/>
          <path id="Path_115" data-name="Path 115" class="cls-4" d="M169,328.849c14.445-2.7,7.273-16.761,4.5-18.257" transform="translate(-79.359 -275.76)"/>
          <path id="Path_116" data-name="Path 116" class="cls-4" d="M145.1,319.327c8.65,4.476,10.322,12.544,4.127,15.7-3.277,1.669-7.364.69-10.483-.606a27.812,27.812,0,0,1-4.772-2.526s-2.485,10.027-15.693,11.179c-15.579,1.359-17.858-8.639-17.858-8.639" transform="translate(-69.276 -277.044)"/>
          <path id="Path_117" data-name="Path 117" class="cls-4" d="M146.293,314.644c10.257,1.488,10.045-7.452,5.75-11.428" transform="translate(-76.02 -274.676)"/>
          <path id="Path_118" data-name="Path 118" class="cls-4" d="M115.528,285.851a8.26,8.26,0,0,0,1.12-.207c.009-.009.009-.009.018-.009a6.406,6.406,0,0,0,2.158-.953.034.034,0,0,1,.019-.009c4.657-3.213,2.758-11.686-1-12.866" transform="translate(-71.497 -270.057)"/>
          <path id="Path_119" data-name="Path 119" class="cls-4" d="M96.164,334.409a6.3,6.3,0,0,1,.371.935,4.916,4.916,0,0,1,.24,1.308,4.418,4.418,0,0,1-.285,1.8c-1.571,4.284-9.618,7.029-20.692,5.834" transform="translate(-65.655 -279.262)"/>
        </g>
      </g>
    </g>
  </g>
</svg>
