<svg xmlns="http://www.w3.org/2000/svg" xmlns:xlink="http://www.w3.org/1999/xlink" width="601" height="499" viewBox="0 0 601 499">
  <defs>
    <style>
      .cls-1 {
        fill: none;
      }

      .cls-2 {
        opacity: 0.3;
        clip-path: url(#clip-path);
      }

      .cls-3 {
        fill: #fff;
      }
    </style>
    <clipPath id="clip-path">
      <rect class="cls-1" width="601" height="499"/>
    </clipPath>
  </defs>
  <g id="Repeat_Grid_1" data-name="Repeat Grid 1" class="cls-2">
    <g transform="translate(-147 -148)">
      <circle id="Ellipse_16" data-name="Ellipse 16" class="cls-3" cx="2.5" cy="2.5" r="2.5" transform="translate(147 203)"/>
      <circle id="Ellipse_19" data-name="Ellipse 19" class="cls-3" cx="2.5" cy="2.5" r="2.5" transform="translate(147 148)"/>
    </g>
    <g transform="translate(-92 -148)">
      <circle id="Ellipse_16-2" data-name="Ellipse 16" class="cls-3" cx="2.5" cy="2.5" r="2.5" transform="translate(147 203)"/>
      <circle id="Ellipse_19-2" data-name="Ellipse 19" class="cls-3" cx="2.5" cy="2.5" r="2.5" transform="translate(147 148)"/>
    </g>
    <g transform="translate(-37 -148)">
      <circle id="Ellipse_16-3" data-name="Ellipse 16" class="cls-3" cx="2.5" cy="2.5" r="2.5" transform="translate(147 203)"/>
      <circle id="Ellipse_19-3" data-name="Ellipse 19" class="cls-3" cx="2.5" cy="2.5" r="2.5" transform="translate(147 148)"/>
    </g>
    <g transform="translate(18 -148)">
      <circle id="Ellipse_16-4" data-name="Ellipse 16" class="cls-3" cx="2.5" cy="2.5" r="2.5" transform="translate(147 203)"/>
      <circle id="Ellipse_19-4" data-name="Ellipse 19" class="cls-3" cx="2.5" cy="2.5" r="2.5" transform="translate(147 148)"/>
    </g>
    <g transform="translate(73 -148)">
      <circle id="Ellipse_16-5" data-name="Ellipse 16" class="cls-3" cx="2.5" cy="2.5" r="2.5" transform="translate(147 203)"/>
      <circle id="Ellipse_19-5" data-name="Ellipse 19" class="cls-3" cx="2.5" cy="2.5" r="2.5" transform="translate(147 148)"/>
    </g>
    <g transform="translate(128 -148)">
      <circle id="Ellipse_16-6" data-name="Ellipse 16" class="cls-3" cx="2.5" cy="2.5" r="2.5" transform="translate(147 203)"/>
      <circle id="Ellipse_19-6" data-name="Ellipse 19" class="cls-3" cx="2.5" cy="2.5" r="2.5" transform="translate(147 148)"/>
    </g>
    <g transform="translate(183 -148)">
      <circle id="Ellipse_16-7" data-name="Ellipse 16" class="cls-3" cx="2.5" cy="2.5" r="2.5" transform="translate(147 203)"/>
      <circle id="Ellipse_19-7" data-name="Ellipse 19" class="cls-3" cx="2.5" cy="2.5" r="2.5" transform="translate(147 148)"/>
    </g>
    <g transform="translate(238 -148)">
      <circle id="Ellipse_16-8" data-name="Ellipse 16" class="cls-3" cx="2.5" cy="2.5" r="2.5" transform="translate(147 203)"/>
      <circle id="Ellipse_19-8" data-name="Ellipse 19" class="cls-3" cx="2.5" cy="2.5" r="2.5" transform="translate(147 148)"/>
    </g>
    <g transform="translate(293 -148)">
      <circle id="Ellipse_16-9" data-name="Ellipse 16" class="cls-3" cx="2.5" cy="2.5" r="2.5" transform="translate(147 203)"/>
      <circle id="Ellipse_19-9" data-name="Ellipse 19" class="cls-3" cx="2.5" cy="2.5" r="2.5" transform="translate(147 148)"/>
    </g>
    <g transform="translate(348 -148)">
      <circle id="Ellipse_16-10" data-name="Ellipse 16" class="cls-3" cx="2.5" cy="2.5" r="2.5" transform="translate(147 203)"/>
      <circle id="Ellipse_19-10" data-name="Ellipse 19" class="cls-3" cx="2.5" cy="2.5" r="2.5" transform="translate(147 148)"/>
    </g>
    <g transform="translate(403 -148)">
      <circle id="Ellipse_16-11" data-name="Ellipse 16" class="cls-3" cx="2.5" cy="2.5" r="2.5" transform="translate(147 203)"/>
      <circle id="Ellipse_19-11" data-name="Ellipse 19" class="cls-3" cx="2.5" cy="2.5" r="2.5" transform="translate(147 148)"/>
    </g>
    <g transform="translate(-147 -38)">
      <circle id="Ellipse_16-12" data-name="Ellipse 16" class="cls-3" cx="2.5" cy="2.5" r="2.5" transform="translate(147 203)"/>
      <circle id="Ellipse_19-12" data-name="Ellipse 19" class="cls-3" cx="2.5" cy="2.5" r="2.5" transform="translate(147 148)"/>
    </g>
    <g transform="translate(-92 -38)">
      <circle id="Ellipse_16-13" data-name="Ellipse 16" class="cls-3" cx="2.5" cy="2.5" r="2.5" transform="translate(147 203)"/>
      <circle id="Ellipse_19-13" data-name="Ellipse 19" class="cls-3" cx="2.5" cy="2.5" r="2.5" transform="translate(147 148)"/>
    </g>
    <g transform="translate(-37 -38)">
      <circle id="Ellipse_16-14" data-name="Ellipse 16" class="cls-3" cx="2.5" cy="2.5" r="2.5" transform="translate(147 203)"/>
      <circle id="Ellipse_19-14" data-name="Ellipse 19" class="cls-3" cx="2.5" cy="2.5" r="2.5" transform="translate(147 148)"/>
    </g>
    <g transform="translate(18 -38)">
      <circle id="Ellipse_16-15" data-name="Ellipse 16" class="cls-3" cx="2.5" cy="2.5" r="2.5" transform="translate(147 203)"/>
      <circle id="Ellipse_19-15" data-name="Ellipse 19" class="cls-3" cx="2.5" cy="2.5" r="2.5" transform="translate(147 148)"/>
    </g>
    <g transform="translate(73 -38)">
      <circle id="Ellipse_16-16" data-name="Ellipse 16" class="cls-3" cx="2.5" cy="2.5" r="2.5" transform="translate(147 203)"/>
      <circle id="Ellipse_19-16" data-name="Ellipse 19" class="cls-3" cx="2.5" cy="2.5" r="2.5" transform="translate(147 148)"/>
    </g>
    <g transform="translate(128 -38)">
      <circle id="Ellipse_16-17" data-name="Ellipse 16" class="cls-3" cx="2.5" cy="2.5" r="2.5" transform="translate(147 203)"/>
      <circle id="Ellipse_19-17" data-name="Ellipse 19" class="cls-3" cx="2.5" cy="2.5" r="2.5" transform="translate(147 148)"/>
    </g>
    <g transform="translate(183 -38)">
      <circle id="Ellipse_16-18" data-name="Ellipse 16" class="cls-3" cx="2.5" cy="2.5" r="2.5" transform="translate(147 203)"/>
      <circle id="Ellipse_19-18" data-name="Ellipse 19" class="cls-3" cx="2.5" cy="2.5" r="2.5" transform="translate(147 148)"/>
    </g>
    <g transform="translate(238 -38)">
      <circle id="Ellipse_16-19" data-name="Ellipse 16" class="cls-3" cx="2.5" cy="2.5" r="2.5" transform="translate(147 203)"/>
      <circle id="Ellipse_19-19" data-name="Ellipse 19" class="cls-3" cx="2.5" cy="2.5" r="2.5" transform="translate(147 148)"/>
    </g>
    <g transform="translate(293 -38)">
      <circle id="Ellipse_16-20" data-name="Ellipse 16" class="cls-3" cx="2.5" cy="2.5" r="2.5" transform="translate(147 203)"/>
      <circle id="Ellipse_19-20" data-name="Ellipse 19" class="cls-3" cx="2.5" cy="2.5" r="2.5" transform="translate(147 148)"/>
    </g>
    <g transform="translate(348 -38)">
      <circle id="Ellipse_16-21" data-name="Ellipse 16" class="cls-3" cx="2.5" cy="2.5" r="2.5" transform="translate(147 203)"/>
      <circle id="Ellipse_19-21" data-name="Ellipse 19" class="cls-3" cx="2.5" cy="2.5" r="2.5" transform="translate(147 148)"/>
    </g>
    <g transform="translate(403 -38)">
      <circle id="Ellipse_16-22" data-name="Ellipse 16" class="cls-3" cx="2.5" cy="2.5" r="2.5" transform="translate(147 203)"/>
      <circle id="Ellipse_19-22" data-name="Ellipse 19" class="cls-3" cx="2.5" cy="2.5" r="2.5" transform="translate(147 148)"/>
    </g>
    <g transform="translate(-147 72)">
      <circle id="Ellipse_16-23" data-name="Ellipse 16" class="cls-3" cx="2.5" cy="2.5" r="2.5" transform="translate(147 203)"/>
      <circle id="Ellipse_19-23" data-name="Ellipse 19" class="cls-3" cx="2.5" cy="2.5" r="2.5" transform="translate(147 148)"/>
    </g>
    <g transform="translate(-92 72)">
      <circle id="Ellipse_16-24" data-name="Ellipse 16" class="cls-3" cx="2.5" cy="2.5" r="2.5" transform="translate(147 203)"/>
      <circle id="Ellipse_19-24" data-name="Ellipse 19" class="cls-3" cx="2.5" cy="2.5" r="2.5" transform="translate(147 148)"/>
    </g>
    <g transform="translate(-37 72)">
      <circle id="Ellipse_16-25" data-name="Ellipse 16" class="cls-3" cx="2.5" cy="2.5" r="2.5" transform="translate(147 203)"/>
      <circle id="Ellipse_19-25" data-name="Ellipse 19" class="cls-3" cx="2.5" cy="2.5" r="2.5" transform="translate(147 148)"/>
    </g>
    <g transform="translate(18 72)">
      <circle id="Ellipse_16-26" data-name="Ellipse 16" class="cls-3" cx="2.5" cy="2.5" r="2.5" transform="translate(147 203)"/>
      <circle id="Ellipse_19-26" data-name="Ellipse 19" class="cls-3" cx="2.5" cy="2.5" r="2.5" transform="translate(147 148)"/>
    </g>
    <g transform="translate(73 72)">
      <circle id="Ellipse_16-27" data-name="Ellipse 16" class="cls-3" cx="2.5" cy="2.5" r="2.5" transform="translate(147 203)"/>
      <circle id="Ellipse_19-27" data-name="Ellipse 19" class="cls-3" cx="2.5" cy="2.5" r="2.5" transform="translate(147 148)"/>
    </g>
    <g transform="translate(128 72)">
      <circle id="Ellipse_16-28" data-name="Ellipse 16" class="cls-3" cx="2.5" cy="2.5" r="2.5" transform="translate(147 203)"/>
      <circle id="Ellipse_19-28" data-name="Ellipse 19" class="cls-3" cx="2.5" cy="2.5" r="2.5" transform="translate(147 148)"/>
    </g>
    <g transform="translate(183 72)">
      <circle id="Ellipse_16-29" data-name="Ellipse 16" class="cls-3" cx="2.5" cy="2.5" r="2.5" transform="translate(147 203)"/>
      <circle id="Ellipse_19-29" data-name="Ellipse 19" class="cls-3" cx="2.5" cy="2.5" r="2.5" transform="translate(147 148)"/>
    </g>
    <g transform="translate(238 72)">
      <circle id="Ellipse_16-30" data-name="Ellipse 16" class="cls-3" cx="2.5" cy="2.5" r="2.5" transform="translate(147 203)"/>
      <circle id="Ellipse_19-30" data-name="Ellipse 19" class="cls-3" cx="2.5" cy="2.5" r="2.5" transform="translate(147 148)"/>
    </g>
    <g transform="translate(293 72)">
      <circle id="Ellipse_16-31" data-name="Ellipse 16" class="cls-3" cx="2.5" cy="2.5" r="2.5" transform="translate(147 203)"/>
      <circle id="Ellipse_19-31" data-name="Ellipse 19" class="cls-3" cx="2.5" cy="2.5" r="2.5" transform="translate(147 148)"/>
    </g>
    <g transform="translate(348 72)">
      <circle id="Ellipse_16-32" data-name="Ellipse 16" class="cls-3" cx="2.5" cy="2.5" r="2.5" transform="translate(147 203)"/>
      <circle id="Ellipse_19-32" data-name="Ellipse 19" class="cls-3" cx="2.5" cy="2.5" r="2.5" transform="translate(147 148)"/>
    </g>
    <g transform="translate(403 72)">
      <circle id="Ellipse_16-33" data-name="Ellipse 16" class="cls-3" cx="2.5" cy="2.5" r="2.5" transform="translate(147 203)"/>
      <circle id="Ellipse_19-33" data-name="Ellipse 19" class="cls-3" cx="2.5" cy="2.5" r="2.5" transform="translate(147 148)"/>
    </g>
    <g transform="translate(-147 182)">
      <circle id="Ellipse_16-34" data-name="Ellipse 16" class="cls-3" cx="2.5" cy="2.5" r="2.5" transform="translate(147 203)"/>
      <circle id="Ellipse_19-34" data-name="Ellipse 19" class="cls-3" cx="2.5" cy="2.5" r="2.5" transform="translate(147 148)"/>
    </g>
    <g transform="translate(-92 182)">
      <circle id="Ellipse_16-35" data-name="Ellipse 16" class="cls-3" cx="2.5" cy="2.5" r="2.5" transform="translate(147 203)"/>
      <circle id="Ellipse_19-35" data-name="Ellipse 19" class="cls-3" cx="2.5" cy="2.5" r="2.5" transform="translate(147 148)"/>
    </g>
    <g transform="translate(-37 182)">
      <circle id="Ellipse_16-36" data-name="Ellipse 16" class="cls-3" cx="2.5" cy="2.5" r="2.5" transform="translate(147 203)"/>
      <circle id="Ellipse_19-36" data-name="Ellipse 19" class="cls-3" cx="2.5" cy="2.5" r="2.5" transform="translate(147 148)"/>
    </g>
    <g transform="translate(18 182)">
      <circle id="Ellipse_16-37" data-name="Ellipse 16" class="cls-3" cx="2.5" cy="2.5" r="2.5" transform="translate(147 203)"/>
      <circle id="Ellipse_19-37" data-name="Ellipse 19" class="cls-3" cx="2.5" cy="2.5" r="2.5" transform="translate(147 148)"/>
    </g>
    <g transform="translate(73 182)">
      <circle id="Ellipse_16-38" data-name="Ellipse 16" class="cls-3" cx="2.5" cy="2.5" r="2.5" transform="translate(147 203)"/>
      <circle id="Ellipse_19-38" data-name="Ellipse 19" class="cls-3" cx="2.5" cy="2.5" r="2.5" transform="translate(147 148)"/>
    </g>
    <g transform="translate(128 182)">
      <circle id="Ellipse_16-39" data-name="Ellipse 16" class="cls-3" cx="2.5" cy="2.5" r="2.5" transform="translate(147 203)"/>
      <circle id="Ellipse_19-39" data-name="Ellipse 19" class="cls-3" cx="2.5" cy="2.5" r="2.5" transform="translate(147 148)"/>
    </g>
    <g transform="translate(183 182)">
      <circle id="Ellipse_16-40" data-name="Ellipse 16" class="cls-3" cx="2.5" cy="2.5" r="2.5" transform="translate(147 203)"/>
      <circle id="Ellipse_19-40" data-name="Ellipse 19" class="cls-3" cx="2.5" cy="2.5" r="2.5" transform="translate(147 148)"/>
    </g>
    <g transform="translate(238 182)">
      <circle id="Ellipse_16-41" data-name="Ellipse 16" class="cls-3" cx="2.5" cy="2.5" r="2.5" transform="translate(147 203)"/>
      <circle id="Ellipse_19-41" data-name="Ellipse 19" class="cls-3" cx="2.5" cy="2.5" r="2.5" transform="translate(147 148)"/>
    </g>
    <g transform="translate(293 182)">
      <circle id="Ellipse_16-42" data-name="Ellipse 16" class="cls-3" cx="2.5" cy="2.5" r="2.5" transform="translate(147 203)"/>
      <circle id="Ellipse_19-42" data-name="Ellipse 19" class="cls-3" cx="2.5" cy="2.5" r="2.5" transform="translate(147 148)"/>
    </g>
    <g transform="translate(348 182)">
      <circle id="Ellipse_16-43" data-name="Ellipse 16" class="cls-3" cx="2.5" cy="2.5" r="2.5" transform="translate(147 203)"/>
      <circle id="Ellipse_19-43" data-name="Ellipse 19" class="cls-3" cx="2.5" cy="2.5" r="2.5" transform="translate(147 148)"/>
    </g>
    <g transform="translate(403 182)">
      <circle id="Ellipse_16-44" data-name="Ellipse 16" class="cls-3" cx="2.5" cy="2.5" r="2.5" transform="translate(147 203)"/>
      <circle id="Ellipse_19-44" data-name="Ellipse 19" class="cls-3" cx="2.5" cy="2.5" r="2.5" transform="translate(147 148)"/>
    </g>
    <g transform="translate(-147 292)">
      <circle id="Ellipse_16-45" data-name="Ellipse 16" class="cls-3" cx="2.5" cy="2.5" r="2.5" transform="translate(147 203)"/>
      <circle id="Ellipse_19-45" data-name="Ellipse 19" class="cls-3" cx="2.5" cy="2.5" r="2.5" transform="translate(147 148)"/>
    </g>
    <g transform="translate(-92 292)">
      <circle id="Ellipse_16-46" data-name="Ellipse 16" class="cls-3" cx="2.5" cy="2.5" r="2.5" transform="translate(147 203)"/>
      <circle id="Ellipse_19-46" data-name="Ellipse 19" class="cls-3" cx="2.5" cy="2.5" r="2.5" transform="translate(147 148)"/>
    </g>
    <g transform="translate(-37 292)">
      <circle id="Ellipse_16-47" data-name="Ellipse 16" class="cls-3" cx="2.5" cy="2.5" r="2.5" transform="translate(147 203)"/>
      <circle id="Ellipse_19-47" data-name="Ellipse 19" class="cls-3" cx="2.5" cy="2.5" r="2.5" transform="translate(147 148)"/>
    </g>
    <g transform="translate(18 292)">
      <circle id="Ellipse_16-48" data-name="Ellipse 16" class="cls-3" cx="2.5" cy="2.5" r="2.5" transform="translate(147 203)"/>
      <circle id="Ellipse_19-48" data-name="Ellipse 19" class="cls-3" cx="2.5" cy="2.5" r="2.5" transform="translate(147 148)"/>
    </g>
    <g transform="translate(73 292)">
      <circle id="Ellipse_16-49" data-name="Ellipse 16" class="cls-3" cx="2.5" cy="2.5" r="2.5" transform="translate(147 203)"/>
      <circle id="Ellipse_19-49" data-name="Ellipse 19" class="cls-3" cx="2.5" cy="2.5" r="2.5" transform="translate(147 148)"/>
    </g>
    <g transform="translate(128 292)">
      <circle id="Ellipse_16-50" data-name="Ellipse 16" class="cls-3" cx="2.5" cy="2.5" r="2.5" transform="translate(147 203)"/>
      <circle id="Ellipse_19-50" data-name="Ellipse 19" class="cls-3" cx="2.5" cy="2.5" r="2.5" transform="translate(147 148)"/>
    </g>
    <g transform="translate(183 292)">
      <circle id="Ellipse_16-51" data-name="Ellipse 16" class="cls-3" cx="2.5" cy="2.5" r="2.5" transform="translate(147 203)"/>
      <circle id="Ellipse_19-51" data-name="Ellipse 19" class="cls-3" cx="2.5" cy="2.5" r="2.5" transform="translate(147 148)"/>
    </g>
    <g transform="translate(238 292)">
      <circle id="Ellipse_16-52" data-name="Ellipse 16" class="cls-3" cx="2.5" cy="2.5" r="2.5" transform="translate(147 203)"/>
      <circle id="Ellipse_19-52" data-name="Ellipse 19" class="cls-3" cx="2.5" cy="2.5" r="2.5" transform="translate(147 148)"/>
    </g>
    <g transform="translate(293 292)">
      <circle id="Ellipse_16-53" data-name="Ellipse 16" class="cls-3" cx="2.5" cy="2.5" r="2.5" transform="translate(147 203)"/>
      <circle id="Ellipse_19-53" data-name="Ellipse 19" class="cls-3" cx="2.5" cy="2.5" r="2.5" transform="translate(147 148)"/>
    </g>
    <g transform="translate(348 292)">
      <circle id="Ellipse_16-54" data-name="Ellipse 16" class="cls-3" cx="2.5" cy="2.5" r="2.5" transform="translate(147 203)"/>
      <circle id="Ellipse_19-54" data-name="Ellipse 19" class="cls-3" cx="2.5" cy="2.5" r="2.5" transform="translate(147 148)"/>
    </g>
    <g transform="translate(403 292)">
      <circle id="Ellipse_16-55" data-name="Ellipse 16" class="cls-3" cx="2.5" cy="2.5" r="2.5" transform="translate(147 203)"/>
      <circle id="Ellipse_19-55" data-name="Ellipse 19" class="cls-3" cx="2.5" cy="2.5" r="2.5" transform="translate(147 148)"/>
    </g>
  </g>
</svg>
