<svg id="Layer_12" data-name="Layer 12" xmlns="http://www.w3.org/2000/svg" width="105.968" height="88.936" viewBox="0 0 105.968 88.936">
  <defs>
    <style>
      .cls-1 {
        fill: #fce370;
      }

      .cls-2 {
        fill: #f9bb79;
      }

      .cls-3 {
        fill: #ede0e6;
      }

      .cls-4 {
        fill: #fff;
      }

      .cls-5 {
        fill: #560000;
      }

      .cls-6 {
        fill: #ff6687;
      }
    </style>
  </defs>
  <g id="Group_55" data-name="Group 55" transform="translate(0 20.456)">
    <g id="Group_53" data-name="Group 53" transform="translate(1.338 1.331)">
      <path id="Path_162" data-name="Path 162" class="cls-1" d="M183.343,478l-.005.005H182.4l-20.276-.016v-.131l-.312-7.9.18-.005Z" transform="translate(-81.253 -447.993)"/>
      <path id="Path_163" data-name="Path 163" class="cls-2" d="M106.836,478.126v.027l-11.275-.011v-.36l.29-3.938a6.224,6.224,0,0,1,.853-2.739l.115.065,9.755.815Z" transform="translate(-69.762 -448.193)"/>
      <path id="Path_164" data-name="Path 164" class="cls-2" d="M171.744,479.691l.005-.005,1.208.454L132,498.971l-.153-.339-36.773-3.554-.109-.585,9.1-1.744.027.142,66.711-12.577v-.623Z" transform="translate(-69.659 -449.682)"/>
      <path id="Path_165" data-name="Path 165" class="cls-2" d="M94.656,498.185l36.773,3.554.153.339L96.1,518.4a2.621,2.621,0,0,1-3.543-2.74l1.056-16.885-.181-.957,1.116-.213Z" transform="translate(-69.24 -452.789)"/>
      <path id="Path_166" data-name="Path 166" class="cls-1" d="M96.944,469.787a5.577,5.577,0,0,1,2-2.007l7.305-4.265.262-.011.307,7.163-9.755-.815Z" transform="translate(-70.002 -446.875)"/>
      <path id="Path_167" data-name="Path 167" class="cls-1" d="M98.761,492.737l-9.1,1.744-1.116.213-21.161,4.052c-2.636.5-4.172-3.243-1.99-4.867l16.174-12.024a11.219,11.219,0,0,1,6.737-2.237h1.848l11.275.011,43.8.033,20.276.017v.623L98.788,492.88Z" transform="translate(-64.349 -449.67)"/>
      <path id="Path_168" data-name="Path 168" class="cls-3" d="M130.236,462.921,153.5,444.789l.241,6.124L132.8,467.29l-14.217-14.764.235-.252Z" transform="translate(-73.755 -443.629)"/>
      <path id="Path_169" data-name="Path 169" class="cls-3" d="M107.654,443.386l7.475,6.972a14.582,14.582,0,0,1-6.644,2.2l-.437.016Z" transform="translate(-71.86 -443.386)"/>
      <path id="Path_170" data-name="Path 170" class="cls-3" d="M119.443,443.7l-.021.93c-.29,2.313-2.029,4.32-4.292,5.731l-7.475-6.972Z" transform="translate(-71.86 -443.386)"/>
      <path id="Path_171" data-name="Path 171" class="cls-4" d="M108.754,468.641l-.307-7.163-.317-7.442.437-.017a14.582,14.582,0,0,0,6.644-2.2l1.794,1.673-.236.252,14.217,14.763,20.938-16.377.579,14.677.312,7.9v.131l-43.8-.033v-.027Z" transform="translate(-71.943 -444.849)"/>
      <path id="Path_172" data-name="Path 172" class="cls-4" d="M153.17,444.611l-23.261,18.132L118.492,452.1l-1.794-1.673c2.263-1.411,4-3.418,4.292-5.731l.021-.93Z" transform="translate(-73.428 -443.451)"/>
    </g>
    <g id="Group_54" data-name="Group 54">
      <path id="Path_173" data-name="Path 173" class="cls-5" d="M66.631,499.843a3.856,3.856,0,0,1-3.522-2.4,3.988,3.988,0,0,1,1.2-4.908l16.175-12.025a12.259,12.259,0,0,1,7.534-2.5l78.131.06a1.332,1.332,0,0,1,0,2.664l-78.134-.061H88a9.85,9.85,0,0,0-5.918,1.974L65.9,494.669a1.373,1.373,0,0,0-.355,1.7,1.211,1.211,0,0,0,1.3.791l56.261-10.772a1.331,1.331,0,1,1,.5,2.615L67.348,499.775A3.874,3.874,0,0,1,66.631,499.843Z" transform="translate(-62.73 -448.06)"/>
      <path id="Path_174" data-name="Path 174" class="cls-5" d="M95.283,477.518c-.033,0-.066,0-.1,0a1.331,1.331,0,0,1-1.23-1.426l.29-3.936a7.581,7.581,0,0,1,1.036-3.323,6.926,6.926,0,0,1,2.469-2.477l7.306-4.264a1.332,1.332,0,0,1,1.342,2.3l-7.306,4.264a4.267,4.267,0,0,0-1.518,1.53,4.927,4.927,0,0,0-.674,2.161l-.29,3.94A1.332,1.332,0,0,1,95.283,477.518Z" transform="translate(-68.145 -445.267)"/>
      <path id="Path_175" data-name="Path 175" class="cls-5" d="M94.855,514.862a3.764,3.764,0,0,1-2.133-.673,4.179,4.179,0,0,1-1.774-3.691L92,493.611a1.314,1.314,0,0,1,1.412-1.246,1.331,1.331,0,0,1,1.246,1.412l-1.055,16.886a1.5,1.5,0,0,0,.624,1.331,1.039,1.039,0,0,0,1.037.115L168.8,478.294l-19.571-7.38a1.332,1.332,0,0,1,.94-2.493l22.554,8.5a1.331,1.331,0,0,1,.088,2.456L96.377,514.53A3.661,3.661,0,0,1,94.855,514.862Z" transform="translate(-67.623 -446.382)"/>
      <path id="Path_176" data-name="Path 176" class="cls-5" d="M108.653,474.372a1.331,1.331,0,0,1-1.329-1.275l-1.28-29.932a1.327,1.327,0,0,1,.381-.991,1.382,1.382,0,0,1,.984-.4l43.947,1.16a1.332,1.332,0,0,1,1.3,1.279l1.132,28.7a1.331,1.331,0,0,1-2.661.1l-1.084-27.457-41.274-1.088,1.218,28.507a1.331,1.331,0,0,1-1.274,1.387Z" transform="translate(-70.242 -441.776)"/>
      <path id="Path_177" data-name="Path 177" class="cls-5" d="M128.061,463.731a1.331,1.331,0,0,1-.908-.358l-20.686-19.292a1.331,1.331,0,1,1,1.816-1.947l19.855,18.516L150.5,443.217a1.331,1.331,0,0,1,1.637,2.1l-23.261,18.132A1.328,1.328,0,0,1,128.061,463.731Z" transform="translate(-70.242 -441.776)"/>
    </g>
  </g>
  <g id="Group_58" data-name="Group 58" transform="translate(20.16 0)">
    <g id="Group_56" data-name="Group 56">
      <circle id="Ellipse_11" data-name="Ellipse 11" class="cls-6" cx="12.918" cy="12.918" r="12.918" transform="translate(1.331 1.332)"/>
      <path id="Path_178" data-name="Path 178" class="cls-5" d="M101.37,445.529a14.25,14.25,0,1,1,14.25-14.25A14.267,14.267,0,0,1,101.37,445.529Zm0-25.837a11.586,11.586,0,1,0,11.587,11.587A11.6,11.6,0,0,0,101.37,419.692Z" transform="translate(-87.12 -417.028)"/>
    </g>
    <g id="Group_57" data-name="Group 57" transform="translate(10.621 8.407)">
      <path id="Path_179" data-name="Path 179" class="cls-4" d="M99.969,429.093h.261a3.957,3.957,0,0,0,3.541-1.894h2.073V438.95h-2.971V431.3h-2.9Z" transform="translate(-99.969 -427.199)"/>
    </g>
  </g>
</svg>
