<svg xmlns="http://www.w3.org/2000/svg" width="149.783" height="157.271" viewBox="0 0 149.783 157.271">
  <defs>
    <style>
      .cls-1, .cls-2 {
        fill: #1c7ff2;
      }

      .cls-1 {
        opacity: 0.2;
      }
    </style>
  </defs>
  <g id="Group_213" data-name="Group 213" transform="translate(-1127.106 -4010.334)">
    <path id="Path_990" data-name="Path 990" class="cls-1" d="M24.013,17.283c29.094-35.7,54.537-10.178,71.575,23.13s1.735,68.452-55.1,80.911S-5.082,52.983,24.013,17.283Z" transform="translate(1188.415 4010.334) rotate(30)"/>
    <g id="noun_Megaphone_1564249" transform="matrix(0.985, -0.174, 0.174, 0.985, 1163.921, 4071.538)">
      <g id="Group_135" data-name="Group 135" transform="translate(0)">
        <path id="Path_989" data-name="Path 989" class="cls-2" d="M49.641,0a1.863,1.863,0,0,0-1.077.5L36.779,11.69H9.844a9.843,9.843,0,1,0,0,19.687H11.4L6.268,45.508A1.938,1.938,0,0,0,8,47.988h9.228a1.9,1.9,0,0,0,1.73-1.23l5.595-15.38H36.779L48.565,42.566a1.866,1.866,0,0,0,1.269.5h3.691a1.918,1.918,0,0,0,1.846-1.846V1.847A1.918,1.918,0,0,0,53.525,0s-3.82,0-3.884,0Zm.942,3.691h1.1V39.375h-1.1L38.8,28.186a1.867,1.867,0,0,0-1.269-.5H36.3v-12.3h1.23a1.867,1.867,0,0,0,1.269-.5ZM9.844,15.382H25.225v12.3H9.844a6.152,6.152,0,1,1,0-12.3Zm19.072,0h3.691v12.3H28.916Zm-13.593,16h5.306L15.938,44.3H10.632Z"/>
      </g>
    </g>
  </g>
</svg>
