<svg id="Component_12_2" data-name="Component 12 – 2" xmlns="http://www.w3.org/2000/svg" width="968.195" height="1336.945" viewBox="0 0 968.195 1336.945">
  <defs>
    <style>
      .cls-1 {
        opacity: 0.2;
      }

      .cls-2 {
        fill: #1c7ff2;
      }
    </style>
  </defs>
  <g id="Group_150" data-name="Group 150" class="cls-1" transform="translate(427.273 886.316) rotate(48)">
    <path id="Polygon_1" data-name="Polygon 1" class="cls-2" d="M24.053,0,48.106,37.6H0Z" transform="translate(0 0)"/>
    <rect id="Rectangle_9" data-name="Rectangle 9" class="cls-2" width="19.195" height="55.201" transform="translate(14.769 16.276)"/>
  </g>
  <g id="Group_188" data-name="Group 188" class="cls-1" transform="translate(617.587 842.95) rotate(34)">
    <path id="Polygon_1-2" data-name="Polygon 1" class="cls-2" d="M24.053,0,48.106,37.6H0Z" transform="translate(0 0)"/>
    <rect id="Rectangle_9-2" data-name="Rectangle 9" class="cls-2" width="19.195" height="55.201" transform="translate(14.769 16.276)"/>
  </g>
  <g id="Group_187" data-name="Group 187" class="cls-1" transform="translate(640.708 727.166) rotate(45)">
    <path id="Polygon_1-3" data-name="Polygon 1" class="cls-2" d="M24.053,0,48.106,37.6H0Z" transform="translate(0)"/>
    <rect id="Rectangle_9-3" data-name="Rectangle 9" class="cls-2" width="19.195" height="55.201" transform="translate(14.769 16.276)"/>
  </g>
  <g id="Group_159" data-name="Group 159" class="cls-1" transform="matrix(1, -0.017, 0.017, 1, 777.846, 491.165)">
    <path id="Polygon_1-4" data-name="Polygon 1" class="cls-2" d="M24.053,0,48.106,37.6H0Z" transform="translate(0 0)"/>
    <rect id="Rectangle_9-4" data-name="Rectangle 9" class="cls-2" width="19.195" height="55.201" transform="translate(14.769 16.276)"/>
  </g>
  <g id="Group_160" data-name="Group 160" class="cls-1" transform="translate(854.75 415.255) rotate(-10)">
    <path id="Polygon_1-5" data-name="Polygon 1" class="cls-2" d="M24.053,0,48.106,37.6H0Z" transform="translate(0 0)"/>
    <rect id="Rectangle_9-5" data-name="Rectangle 9" class="cls-2" width="19.195" height="55.201" transform="translate(14.769 16.276)"/>
  </g>
  <g id="Group_186" data-name="Group 186" class="cls-1" transform="matrix(0.978, -0.208, 0.208, 0.978, 906.28, 312.006)">
    <path id="Polygon_1-6" data-name="Polygon 1" class="cls-2" d="M24.053,0,48.106,37.6H0Z" transform="translate(0 0)"/>
    <rect id="Rectangle_9-6" data-name="Rectangle 9" class="cls-2" width="19.195" height="55.201" transform="translate(14.769 16.276)"/>
  </g>
  <g id="Group_161" data-name="Group 161" class="cls-1" transform="translate(764.037 341.904) rotate(-16)">
    <path id="Polygon_1-7" data-name="Polygon 1" class="cls-2" d="M24.053,0,48.106,37.6H0Z" transform="translate(0 0)"/>
    <rect id="Rectangle_9-7" data-name="Rectangle 9" class="cls-2" width="19.195" height="55.201" transform="translate(14.769 16.276)"/>
  </g>
  <g id="Group_192" data-name="Group 192" class="cls-1" transform="translate(732.055 231.696) rotate(-25)">
    <path id="Polygon_1-8" data-name="Polygon 1" class="cls-2" d="M24.053,0,48.106,37.6H0Z" transform="translate(0 0)"/>
    <rect id="Rectangle_9-8" data-name="Rectangle 9" class="cls-2" width="19.195" height="55.201" transform="translate(14.769 16.276)"/>
  </g>
  <g id="Group_162" data-name="Group 162" class="cls-1" transform="matrix(0.985, -0.174, 0.174, 0.985, 830.147, 226.306)">
    <path id="Polygon_1-9" data-name="Polygon 1" class="cls-2" d="M24.053,0,48.106,37.6H0Z" transform="translate(0)"/>
    <rect id="Rectangle_9-9" data-name="Rectangle 9" class="cls-2" width="19.195" height="55.201" transform="translate(14.769 16.276)"/>
  </g>
  <g id="Group_185" data-name="Group 185" class="cls-1" transform="matrix(0.966, -0.259, 0.259, 0.966, 859.99, 104.556)">
    <path id="Polygon_1-10" data-name="Polygon 1" class="cls-2" d="M24.053,0,48.106,37.6H0Z" transform="translate(0 0)"/>
    <rect id="Rectangle_9-10" data-name="Rectangle 9" class="cls-2" width="19.195" height="55.201" transform="translate(14.769 16.276)"/>
  </g>
  <g id="Group_163" data-name="Group 163" class="cls-1" transform="matrix(0.848, -0.53, 0.53, 0.848, 731.828, 134.052)">
    <path id="Polygon_1-11" data-name="Polygon 1" class="cls-2" d="M24.053,0,48.106,37.6H0Z" transform="translate(0)"/>
    <rect id="Rectangle_9-11" data-name="Rectangle 9" class="cls-2" width="19.195" height="55.201" transform="translate(14.769 16.276)"/>
  </g>
  <g id="Group_191" data-name="Group 191" class="cls-1" transform="matrix(0.809, -0.588, 0.588, 0.809, 629.893, 98.27)">
    <path id="Polygon_1-12" data-name="Polygon 1" class="cls-2" d="M24.053,0,48.106,37.6H0Z" transform="translate(0 0)"/>
    <rect id="Rectangle_9-12" data-name="Rectangle 9" class="cls-2" width="19.195" height="55.201" transform="translate(14.769 16.276)"/>
  </g>
  <g id="Group_164" data-name="Group 164" class="cls-1" transform="matrix(0.875, -0.485, 0.485, 0.875, 774.876, 23.322)">
    <path id="Polygon_1-13" data-name="Polygon 1" class="cls-2" d="M24.053,0,48.106,37.6H0Z" transform="translate(0 0)"/>
    <rect id="Rectangle_9-13" data-name="Rectangle 9" class="cls-2" width="19.195" height="55.201" transform="translate(14.769 16.276)"/>
  </g>
  <g id="Group_176" data-name="Group 176" class="cls-1" transform="translate(611.742 1138.748) rotate(45)">
    <path id="Polygon_1-14" data-name="Polygon 1" class="cls-2" d="M24.053,0,48.106,37.6H0Z" transform="translate(0 0)"/>
    <rect id="Rectangle_9-14" data-name="Rectangle 9" class="cls-2" width="19.195" height="55.201" transform="translate(14.769 16.276)"/>
  </g>
  <g id="Group_189" data-name="Group 189" class="cls-1" transform="matrix(0.777, 0.629, -0.629, 0.777, 636.204, 1232.785)">
    <path id="Polygon_1-15" data-name="Polygon 1" class="cls-2" d="M24.053,0,48.106,37.6H0Z" transform="translate(0 0)"/>
    <rect id="Rectangle_9-15" data-name="Rectangle 9" class="cls-2" width="19.195" height="55.201" transform="translate(14.769 16.276)"/>
  </g>
  <g id="Group_190" data-name="Group 190" class="cls-1" transform="translate(514.16 1253.016) rotate(47)">
    <path id="Polygon_1-16" data-name="Polygon 1" class="cls-2" d="M24.053,0,48.106,37.6H0Z" transform="translate(0 0)"/>
    <rect id="Rectangle_9-16" data-name="Rectangle 9" class="cls-2" width="19.195" height="55.201" transform="translate(14.769 16.276)"/>
  </g>
  <g id="Group_178" data-name="Group 178" class="cls-1" transform="translate(678.532 1022.342) rotate(30)">
    <path id="Polygon_1-17" data-name="Polygon 1" class="cls-2" d="M24.053,0,48.106,37.6H0Z" transform="translate(0 0)"/>
    <rect id="Rectangle_9-17" data-name="Rectangle 9" class="cls-2" width="19.195" height="55.201" transform="translate(14.769 16.276)"/>
  </g>
  <g id="Group_179" data-name="Group 179" class="cls-1" transform="matrix(0.914, 0.407, -0.407, 0.914, 729.28, 910.686)">
    <path id="Polygon_1-18" data-name="Polygon 1" class="cls-2" d="M24.053,0,48.106,37.6H0Z" transform="translate(0 0)"/>
    <rect id="Rectangle_9-18" data-name="Rectangle 9" class="cls-2" width="19.195" height="55.201" transform="translate(14.769 16.276)"/>
  </g>
  <g id="Group_183" data-name="Group 183" class="cls-1" transform="translate(763.762 791.579) rotate(-1)">
    <path id="Polygon_1-19" data-name="Polygon 1" class="cls-2" d="M24.053,0,48.106,37.6H0Z" transform="translate(0 0)"/>
    <rect id="Rectangle_9-19" data-name="Rectangle 9" class="cls-2" width="19.195" height="55.201" transform="translate(14.769 16.276)"/>
  </g>
  <g id="Group_177" data-name="Group 177" class="cls-1" transform="translate(708.519 1121.349) rotate(22)">
    <path id="Polygon_1-20" data-name="Polygon 1" class="cls-2" d="M24.053,0,48.106,37.6H0Z" transform="translate(0 0)"/>
    <rect id="Rectangle_9-20" data-name="Rectangle 9" class="cls-2" width="19.195" height="55.201" transform="translate(14.769 16.276)"/>
  </g>
  <g id="Group_154" data-name="Group 154" class="cls-1" transform="matrix(0.545, 0.839, -0.839, 0.545, 386.19, 1037.78)">
    <path id="Polygon_1-21" data-name="Polygon 1" class="cls-2" d="M24.053,0,48.106,37.6H0Z" transform="translate(0 0)"/>
    <rect id="Rectangle_9-21" data-name="Rectangle 9" class="cls-2" width="19.195" height="55.201" transform="translate(14.769 16.276)"/>
  </g>
  <g id="Group_169" data-name="Group 169" class="cls-1" transform="translate(227.89 1075.238) rotate(47)">
    <path id="Polygon_1-22" data-name="Polygon 1" class="cls-2" d="M24.053,0,48.106,37.6H0Z" transform="translate(0 0)"/>
    <rect id="Rectangle_9-22" data-name="Rectangle 9" class="cls-2" width="19.195" height="55.201" transform="translate(14.769 16.276)"/>
  </g>
  <g id="Group_172" data-name="Group 172" class="cls-1" transform="matrix(0.743, 0.669, -0.669, 0.743, 108.651, 1128.465)">
    <path id="Polygon_1-23" data-name="Polygon 1" class="cls-2" d="M24.053,0,48.106,37.6H0Z" transform="translate(0 0)"/>
    <rect id="Rectangle_9-23" data-name="Rectangle 9" class="cls-2" width="19.195" height="55.201" transform="translate(14.769 16.276)"/>
  </g>
  <g id="Group_184" data-name="Group 184" class="cls-1" transform="translate(49.652 1224.248) rotate(44)">
    <path id="Polygon_1-24" data-name="Polygon 1" class="cls-2" d="M24.053,0,48.106,37.6H0Z" transform="translate(0 0)"/>
    <rect id="Rectangle_9-24" data-name="Rectangle 9" class="cls-2" width="19.195" height="55.201" transform="translate(14.769 16.276)"/>
  </g>
  <g id="Group_181" data-name="Group 181" class="cls-1" transform="matrix(0.669, 0.743, -0.743, 0.669, 213.882, 1186.307)">
    <path id="Polygon_1-25" data-name="Polygon 1" class="cls-2" d="M24.053,0,48.106,37.6H0Z" transform="translate(0 0)"/>
    <rect id="Rectangle_9-25" data-name="Rectangle 9" class="cls-2" width="19.195" height="55.201" transform="translate(14.769 16.276)"/>
  </g>
  <g id="Group_168" data-name="Group 168" class="cls-1" transform="matrix(0.454, 0.891, -0.891, 0.454, 266.708, 972.853)">
    <path id="Polygon_1-26" data-name="Polygon 1" class="cls-2" d="M24.053,0,48.106,37.6H0Z" transform="translate(0 0)"/>
    <rect id="Rectangle_9-26" data-name="Rectangle 9" class="cls-2" width="19.195" height="55.201" transform="translate(14.769 16.276)"/>
  </g>
  <g id="Group_151" data-name="Group 151" class="cls-1" transform="matrix(0.766, 0.643, -0.643, 0.766, 532.092, 938.551)">
    <path id="Polygon_1-27" data-name="Polygon 1" class="cls-2" d="M24.053,0,48.106,37.6H0Z" transform="translate(0 0)"/>
    <rect id="Rectangle_9-27" data-name="Rectangle 9" class="cls-2" width="19.195" height="55.201" transform="translate(14.769 16.276)"/>
  </g>
  <g id="Group_165" data-name="Group 165" class="cls-1" transform="translate(856.227 893.362) rotate(-23)">
    <path id="Polygon_1-28" data-name="Polygon 1" class="cls-2" d="M24.053,0,48.106,37.6H0Z" transform="translate(0 0)"/>
    <rect id="Rectangle_9-28" data-name="Rectangle 9" class="cls-2" width="19.195" height="55.201" transform="translate(14.769 16.276)"/>
  </g>
  <g id="Group_167" data-name="Group 167" class="cls-1" transform="matrix(0.875, -0.485, 0.485, 0.875, 881.648, 1114.418)">
    <path id="Polygon_1-29" data-name="Polygon 1" class="cls-2" d="M24.053,0,48.106,37.6H0Z" transform="translate(0 0)"/>
    <rect id="Rectangle_9-29" data-name="Rectangle 9" class="cls-2" width="19.195" height="55.201" transform="translate(14.769 16.276)"/>
  </g>
  <g id="Group_173" data-name="Group 173" class="cls-1" transform="translate(823.169 997.29) rotate(-9)">
    <path id="Polygon_1-30" data-name="Polygon 1" class="cls-2" d="M24.053,0,48.106,37.6H0Z" transform="translate(0 0)"/>
    <rect id="Rectangle_9-30" data-name="Rectangle 9" class="cls-2" width="19.195" height="55.201" transform="translate(14.769 16.276)"/>
  </g>
  <g id="Group_156" data-name="Group 156" class="cls-1" transform="matrix(0.927, 0.375, -0.375, 0.927, 743.206, 653.243)">
    <path id="Polygon_1-31" data-name="Polygon 1" class="cls-2" d="M24.053,0,48.106,37.6H0Z" transform="translate(0 0)"/>
    <rect id="Rectangle_9-31" data-name="Rectangle 9" class="cls-2" width="19.195" height="55.201" transform="translate(14.769 16.276)"/>
  </g>
  <g id="Group_152" data-name="Group 152" class="cls-1" transform="translate(864.738 716.522) rotate(-15)">
    <path id="Polygon_1-32" data-name="Polygon 1" class="cls-2" d="M24.053,0,48.106,37.6H0Z" transform="translate(0 0)"/>
    <rect id="Rectangle_9-32" data-name="Rectangle 9" class="cls-2" width="19.195" height="55.201" transform="translate(14.769 16.276)"/>
  </g>
  <g id="Group_158" data-name="Group 158" class="cls-1" transform="matrix(0.998, -0.07, 0.07, 0.998, 836.742, 575.247)">
    <path id="Polygon_1-33" data-name="Polygon 1" class="cls-2" d="M24.053,0,48.106,37.6H0Z" transform="translate(0 0)"/>
    <rect id="Rectangle_9-33" data-name="Rectangle 9" class="cls-2" width="19.195" height="55.201" transform="translate(14.769 16.276)"/>
  </g>
</svg>
