<svg xmlns="http://www.w3.org/2000/svg" width="90.965" height="90.547" viewBox="0 0 90.965 90.547">
  <defs>
    <style>
      .cls-1 {
        fill: #ede0e6;
      }

      .cls-2 {
        fill: #fff;
      }

      .cls-3 {
        fill: #f9bb79;
      }

      .cls-4 {
        fill: #fce370;
      }

      .cls-5 {
        fill: #560000;
      }
    </style>
  </defs>
  <g id="Layer_14" data-name="Layer 14" transform="translate(-441.59 -420.124)">
    <g id="Group_65" data-name="Group 65" transform="translate(441.59 420.124)">
      <g id="Group_62" data-name="Group 62" transform="translate(1.407 1.406)">
        <path id="Path_192" data-name="Path 192" class="cls-1" d="M531.266,496.382c4.971-2.3,6.918-12.865,1.3-16.3l-.064-.345a13.9,13.9,0,0,0,5.751-2.452l.117.175c4.069,1.64,7.6,13-1.845,17.51a15.985,15.985,0,0,1-1.86.753,20.345,20.345,0,0,1-3.357.782Z" transform="translate(-454.388 -428.791)"/>
        <path id="Path_193" data-name="Path 193" class="cls-1" d="M506.468,421.75c7.782.411,10.324,14.359,8.586,26.652-.084.618-.176,1.261-.286,1.9a34.066,34.066,0,0,1-1.29,5.476l.076,1.848a16.72,16.72,0,0,1-5.368-.535l-.353-.231c1.772-4.645,8.406-28.548-1.429-34.355Z" transform="translate(-451.23 -421.736)"/>
        <path id="Path_194" data-name="Path 194" class="cls-2" d="M525.3,472.681l.064.345c5.616,3.435,3.668,14-1.3,16.3l.045.124c2.093,5.7-7.718,8.145-15,8.418-12.268.451-26.985.831-30.969-2.556-4.861-4.131-5.034-23.025.947-31.833l0-1.512c.711,0,1.373-.008,1.969-.015l0-.131.342.027c.4-1.582,2.3-6.933,10.48-10.358,9.688-4.058-2.821-26.841,8.362-29.53a7.209,7.209,0,0,1,2.2-.212l-.064.758c9.835,5.807,3.2,29.71,1.429,34.355l.353.231a16.72,16.72,0,0,0,5.368.535l-.076-1.848a34.073,34.073,0,0,0,1.29-5.476l.171.03c3.232-.182,21.347.569,23.7,9.463a9.663,9.663,0,0,1-3.529,10.425l-.008.008A13.9,13.9,0,0,1,525.3,472.681Z" transform="translate(-447.182 -421.734)"/>
        <path id="Path_195" data-name="Path 195" class="cls-1" d="M480.29,510.842c-2.065-.061-3.7-.1-4.613-.1-4.787,0-8.692-9.613-8.7-21.452,0-11.854,3.9-21.468,8.687-21.473q1.323,0,2.45,0l0,1.512c-5.981,8.808-5.808,27.7-.947,31.833,3.983,3.387,18.7,3.007,30.969,2.556,7.287-.273,17.1-2.718,15-8.418a20.342,20.342,0,0,0,3.357-.782l1.926.082c.935,4.276-1.032,16.562-17.121,16.908C507.448,511.6,489.474,511.1,480.29,510.842Z" transform="translate(-446.222 -427.588)"/>
        <path id="Path_196" data-name="Path 196" class="cls-3" d="M458.222,508.645c-1.781,0-3.229,1.162-3.231,2.608s1.449,2.616,3.23,2.621c1.806,0,3.254-1.178,3.256-2.624S460.027,508.65,458.222,508.645Zm14.436,5.226c.915-.006,2.548.035,4.613.1l0,.073c-1.693,2.793-3.742,4.407-5.932,4.407l-17.524-.618c-5.85.006-10.6-10.962-10.61-25.251,6.483,1.5,13.106,1.019,20.755-.159C463.965,504.257,467.87,513.867,472.657,513.871Z" transform="translate(-443.202 -430.713)"/>
        <path id="Path_197" data-name="Path 197" class="cls-4" d="M477.064,467.185c-.6.007-1.259.011-1.969.015q-1.127,0-2.45,0c-4.788,0-8.685,9.618-8.687,21.473-7.649,1.178-14.272,1.659-20.755.159,0-14.306,4.749-25.9,10.6-25.9l17.524,0,.139,0c2.065.061,3.981,1.572,5.6,4.12Z" transform="translate(-443.202 -426.967)"/>
      </g>
      <g id="Group_64" data-name="Group 64">
        <path id="Path_198" data-name="Path 198" class="cls-5" d="M509.91,512.722c-5.515,0-21.138-.436-29.863-.68-2.368-.071-3.778-.107-4.567-.1-5.762,0-10.106-9.831-10.114-22.857s4.34-22.875,10.092-22.88q1.324,0,2.448,0c.7,0,1.363-.009,1.957-.016h.016a1.407,1.407,0,0,1,.017,2.814c-.6.007-1.264.012-1.979.016h-2.46c-3.44,0-7.275,8.244-7.277,20.065s3.849,20.042,7.294,20.044c.81,0,2.255.026,4.655.1,8.8.245,27.1.758,30.942.67,5.984-.129,10.412-1.965,13.163-5.459a12.823,12.823,0,0,0,2.616-9.743,1.407,1.407,0,0,1,2.748-.6,15.639,15.639,0,0,1-3.155,12.085c-2.266,2.877-6.761,6.347-15.31,6.529C510.813,512.718,510.4,512.722,509.91,512.722Z" transform="translate(-444.61 -425.976)"/>
        <path id="Path_199" data-name="Path 199" class="cls-5" d="M482.068,463.5a1.359,1.359,0,0,1-.187-.013,1.409,1.409,0,0,1-1.212-1.562,5.8,5.8,0,0,1,.125-.618c.436-1.733,2.539-7.65,11.3-11.318,3.746-1.57,3.292-7.234,2.812-13.232-.552-6.89-1.178-14.7,5.764-16.367a8.65,8.65,0,0,1,2.615-.248,8.069,8.069,0,0,1,5.919,3.185c4.43,5.379,5.185,16.465,3.968,25.066-.084.626-.178,1.283-.291,1.941a35.911,35.911,0,0,1-1.354,5.718,1.406,1.406,0,1,1-2.646-.954,32.534,32.534,0,0,0,1.227-5.23c.107-.63.2-1.257.279-1.861,1.337-9.46-.042-18.87-3.353-22.892a5.314,5.314,0,0,0-3.913-2.167,6.041,6.041,0,0,0-1.787.175c-4.3,1.034-4.237,5.756-3.625,13.41.54,6.732,1.1,13.694-4.529,16.051-7.559,3.164-9.3,8-9.659,9.4-.043.173-.062.282-.066.313A1.4,1.4,0,0,1,482.068,463.5Z" transform="translate(-446.553 -420.124)"/>
        <path id="Path_200" data-name="Path 200" class="cls-5" d="M512.585,463.892a17.1,17.1,0,0,1-4.741-.619,1.406,1.406,0,0,1,.791-2.7,15.161,15.161,0,0,0,4.9.481,18.024,18.024,0,0,0,5.9-1.174,1.407,1.407,0,0,1,1.048,2.611,20.915,20.915,0,0,1-6.825,1.374Q513.117,463.892,512.585,463.892Z" transform="translate(-449.877 -425.161)"/>
        <path id="Path_201" data-name="Path 201" class="cls-5" d="M528.544,478.312a1.407,1.407,0,0,1-.136-2.807,16.864,16.864,0,0,0,1.7-.25,12.636,12.636,0,0,0,5.158-2.176l.024-.02a8.224,8.224,0,0,0,3.027-8.954c-2.052-7.769-19.2-8.582-22.257-8.416a1.406,1.406,0,0,1-.158-2.808c4.369-.248,22.585.851,25.136,10.509a11.062,11.062,0,0,1-4.005,11.878c-.017.014-.032.027-.047.038a15.4,15.4,0,0,1-6.329,2.71,19.327,19.327,0,0,1-1.968.291C528.637,478.31,528.59,478.312,528.544,478.312Z" transform="translate(-450.86 -424.281)"/>
        <path id="Path_202" data-name="Path 202" class="cls-5" d="M530.623,497.794a1.407,1.407,0,0,1-.192-2.8l.426-.06a19.157,19.157,0,0,0,3.114-.726,14.612,14.612,0,0,0,1.685-.683,8.459,8.459,0,0,0,5.212-8.213c-.1-3.274-1.778-6.121-3.28-6.727a1.406,1.406,0,1,1,1.052-2.608c2.742,1.106,4.91,5.081,5.04,9.247a11.283,11.283,0,0,1-6.8,10.835,17.184,17.184,0,0,1-2.017.818,21.968,21.968,0,0,1-3.6.841l-.441.063A1.492,1.492,0,0,1,530.623,497.794Z" transform="translate(-452.721 -427.205)"/>
        <path id="Path_203" data-name="Path 203" class="cls-5" d="M480.969,468.257a1.4,1.4,0,0,1-1.189-.654c-.984-1.551-2.554-3.412-4.451-3.468a1.406,1.406,0,0,1-1.364-1.447,1.432,1.432,0,0,1,1.447-1.364c2.478.073,4.81,1.725,6.743,4.774a1.407,1.407,0,0,1-1.186,2.16Z" transform="translate(-445.702 -425.357)"/>
        <path id="Path_204" data-name="Path 204" class="cls-5" d="M471.132,515.9l-17.573-.619h-.007c-3.393,0-6.513-2.885-8.735-8.122-2.077-4.895-3.222-11.477-3.227-18.534,0-15.308,5.275-27.3,12-27.309l17.526,0,.182.005.389,0h.009a1.407,1.407,0,0,1,.009,2.814l-.442,0-.19-.005-17.481,0c-4.347,0-9.193,10.065-9.193,24.495,0,6.688,1.071,12.88,3,17.436,1.727,4.073,3.986,6.409,6.2,6.409h0l17.574.619c1.543,0,3.223-1.325,4.68-3.729a1.406,1.406,0,0,1,2.406,1.457C475.72,515.021,472.981,515.9,471.132,515.9Z" transform="translate(-441.59 -425.356)"/>
        <g id="Group_63" data-name="Group 63" transform="translate(11.79 76.693)">
          <path id="Path_205" data-name="Path 205" class="cls-2" d="M463.192,512.192c0,1.446-1.45,2.62-3.256,2.623-1.781,0-3.233-1.183-3.23-2.621s1.45-2.6,3.231-2.608C461.742,509.591,463.186,510.745,463.192,512.192Z" transform="translate(-455.3 -508.181)"/>
          <path id="Path_206" data-name="Path 206" class="cls-5" d="M459.734,516.018c-2.564-.005-4.642-1.813-4.639-4.031,0-2.243,2.038-4.005,4.634-4.011,2.611.007,4.656,1.767,4.666,4.005v.009C464.39,514.206,462.3,516.013,459.734,516.018Zm-.006-5.229c-.965,0-1.819.565-1.82,1.2,0,.572.749,1.211,1.826,1.213s1.844-.642,1.847-1.215C461.576,511.34,460.728,510.791,459.728,510.789Z" transform="translate(-455.095 -507.976)"/>
        </g>
      </g>
    </g>
  </g>
</svg>
