<svg xmlns="http://www.w3.org/2000/svg" width="152.256" height="156.724" viewBox="0 0 152.256 156.724">
  <defs>
    <style>
      .cls-1, .cls-2 {
        fill: #1c7ff2;
      }

      .cls-1 {
        opacity: 0.2;
      }
    </style>
  </defs>
  <g id="Group_215" data-name="Group 215" transform="translate(-1128.682 -4323.596)">
    <path id="Path_993" data-name="Path 993" class="cls-1" d="M1.425,82.919c9.956-43.831,55.555-93.8,75.08-80.834S130.59,93.622,82.929,109.1-8.531,126.75,1.425,82.919Z" transform="translate(1188.281 4323.596) rotate(30)"/>
    <g id="noun_increase_141508" transform="translate(1165.351 4390.84)">
      <path id="Path_994" data-name="Path 994" class="cls-2" d="M77.4,33.464V45.748a2.754,2.754,0,1,1-5.509,0V39.882L53.807,57.968a2.835,2.835,0,0,1-3.9,0l-11.09-11.09L20.37,65.322a2.747,2.747,0,0,1-1.946.808,2.754,2.754,0,0,1-1.946-4.7l20.391-20.4a2.842,2.842,0,0,1,3.893,0l11.09,11.1,15.91-15.91h-5.4a2.754,2.754,0,1,1,0-5.509H74.647A2.751,2.751,0,0,1,77.4,33.464Z" transform="translate(-15.665 -30.71)"/>
    </g>
  </g>
</svg>
